<svg xmlns="http://www.w3.org/2000/svg" xmlns:xlink="http://www.w3.org/1999/xlink" width="250" height="250" viewBox="0 0 250 250">
  <defs>
    <clipPath id="clip-path">
      <rect id="Rectangle_409" data-name="Rectangle 409" width="246" height="246" transform="translate(941.192 904.192)" fill="#fff"/>
    </clipPath>
    <clipPath id="clip-Coming-soon">
      <rect width="250" height="250"/>
    </clipPath>
  </defs>
  <g id="Coming-soon" clip-path="url(#clip-Coming-soon)">
    <rect width="250" height="250" fill="#fff"/>
    <path id="Icon_metro-soundcloud" data-name="Icon metro-soundcloud" d="M37.551,19.184a5.348,5.348,0,0,0-2,.387,9,9,0,0,0-9.1-8,9.553,9.553,0,0,0-3.307.595c-.391.145-.493.295-.493.585V28.541a.6.6,0,0,0,.554.588c.013,0,14.257.008,14.349.008a4.98,4.98,0,1,0,0-9.953ZM18.257,29.137h1.255l.627-8.793-.627-8.776H18.257l-.627,8.776Zm-3.765,0H13.238l-.627-6.383.627-6.167h1.255l.627,6.275Zm-6.275,0H9.473l.627-5.02L9.473,19.1H8.218l-.627,5.02ZM3.2,26.628H4.453l.627-2.51-.627-2.51H3.2l-.627,2.51Z" transform="translate(52.429 61.062)" fill="#fe5000" opacity="0"/>
    <g id="Mask_Group_5" data-name="Mask Group 5" transform="translate(-939.192 -902.192)" clip-path="url(#clip-path)">
      <rect id="Rectangle_410" data-name="Rectangle 410" width="246" height="246" transform="translate(941.192 904.192)" fill="#fff"/>
      <g id="Work_time-rafiki" data-name="Work time-rafiki" transform="translate(941.086 935.465)">
        <g id="freepik--background-complete--inject-84" transform="translate(0 0)">
          <rect id="Rectangle_377" data-name="Rectangle 377" width="246.228" height="0.123" transform="translate(0 161.23)" fill="#ebebeb"/>
          <rect id="Rectangle_378" data-name="Rectangle 378" width="16.31" height="0.123" transform="translate(205.246 169.154)" fill="#ebebeb"/>
          <rect id="Rectangle_379" data-name="Rectangle 379" width="4.279" height="0.123" transform="translate(158.832 170.493)" fill="#ebebeb"/>
          <rect id="Rectangle_380" data-name="Rectangle 380" width="9.45" height="0.123" transform="translate(195.303 164.584)" fill="#ebebeb"/>
          <rect id="Rectangle_381" data-name="Rectangle 381" width="21.269" height="0.123" transform="translate(25.834 165.411)" fill="#ebebeb"/>
          <rect id="Rectangle_382" data-name="Rectangle 382" width="3.117" height="0.123" transform="translate(51.491 165.411)" fill="#ebebeb"/>
          <rect id="Rectangle_383" data-name="Rectangle 383" width="46.133" height="0.123" transform="translate(64.743 167.489)" fill="#ebebeb"/>
          <path id="Path_2401" data-name="Path 2401" d="M104.315,148.507H9.226a2.812,2.812,0,0,1-2.807-2.812V12.027A2.812,2.812,0,0,1,9.226,9.24h95.088a2.812,2.812,0,0,1,2.812,2.812V145.695A2.812,2.812,0,0,1,104.315,148.507ZM9.226,9.338a2.689,2.689,0,0,0-2.684,2.689V145.695a2.689,2.689,0,0,0,2.684,2.689h95.088A2.694,2.694,0,0,0,107,145.695V12.027a2.694,2.694,0,0,0-2.689-2.689Z" transform="translate(12.397 -9.24)" fill="#ebebeb"/>
          <path id="Path_2402" data-name="Path 2402" d="M140.661,148.507H45.568a2.817,2.817,0,0,1-2.812-2.812V12.027A2.817,2.817,0,0,1,45.568,9.24h95.093a2.812,2.812,0,0,1,2.8,2.787V145.695A2.812,2.812,0,0,1,140.661,148.507ZM45.568,9.338a2.694,2.694,0,0,0-2.689,2.689V145.695a2.694,2.694,0,0,0,2.689,2.689h95.093a2.694,2.694,0,0,0,2.689-2.689V12.027a2.694,2.694,0,0,0-2.689-2.689Z" transform="translate(82.574 -9.24)" fill="#ebebeb"/>
          <circle id="Ellipse_119" data-name="Ellipse 119" cx="25.815" cy="25.815" r="25.815" transform="translate(151.135 14.976)" fill="#e0e0e0"/>
          <circle id="Ellipse_120" data-name="Ellipse 120" cx="25.815" cy="25.815" r="25.815" transform="translate(149.175 14.976)" fill="#f5f5f5"/>
          <circle id="Ellipse_121" data-name="Ellipse 121" cx="23.86" cy="23.86" r="23.86" transform="translate(141.25 40.793) rotate(-45)" fill="#fff"/>
          <path id="Path_2403" data-name="Path 2403" d="M64.142,40.885a.576.576,0,0,1-.561-.443L59.513,23.659a.581.581,0,0,1,1.128-.276L64.7,40.171a.581.581,0,0,1-.428.7.611.611,0,0,1-.133.015Z" transform="translate(114.915 17.269)" fill="#f5f5f5"/>
          <path id="Path_2404" data-name="Path 2404" d="M69.657,34.274a1.152,1.152,0,0,1-.817-.34L54.878,19.973a1.158,1.158,0,1,1,1.64-1.635L69.657,31.482l7.668-7.668a1.158,1.158,0,1,1,1.635,1.64l-8.485,8.48A1.157,1.157,0,0,1,69.657,34.274Z" transform="translate(105.333 7.674)" fill="#ebebeb"/>
          <rect id="Rectangle_384" data-name="Rectangle 384" width="3.89" height="26.642" transform="translate(112.97 157.635) rotate(180)" fill="#f0f0f0"/>
          <rect id="Rectangle_385" data-name="Rectangle 385" width="80.014" height="3.595" transform="translate(110.404 161.23) rotate(180)" fill="#f0f0f0"/>
          <rect id="Rectangle_386" data-name="Rectangle 386" width="81.26" height="26.642" transform="translate(27.819 130.993)" fill="#f5f5f5"/>
          <rect id="Rectangle_387" data-name="Rectangle 387" width="70.746" height="15.217" transform="translate(33.073 135.632)" fill="#f0f0f0"/>
          <rect id="Rectangle_388" data-name="Rectangle 388" width="36.757" height="2.551" rx="0.398" transform="translate(86.83 137.666) rotate(180)" fill="#f5f5f5"/>
          <rect id="Rectangle_389" data-name="Rectangle 389" width="83.043" height="2.379" transform="translate(109.079 130.993) rotate(180)" fill="#f0f0f0"/>
          <rect id="Rectangle_390" data-name="Rectangle 390" width="5.757" height="2.379" transform="translate(109.079 128.615)" fill="#e6e6e6"/>
          <rect id="Rectangle_391" data-name="Rectangle 391" width="7.584" height="58.366" transform="translate(204.02 102.864)" fill="#f0f0f0"/>
          <rect id="Rectangle_392" data-name="Rectangle 392" width="66.378" height="58.366" transform="translate(204.02 161.23) rotate(180)" fill="#f5f5f5"/>
          <rect id="Rectangle_393" data-name="Rectangle 393" width="58.277" height="31.217" transform="translate(195.313 156.104) rotate(180)" fill="#fafafa"/>
          <rect id="Rectangle_394" data-name="Rectangle 394" width="58.277" height="10.278" transform="translate(195.313 121.578) rotate(180)" fill="#fafafa"/>
          <rect id="Rectangle_395" data-name="Rectangle 395" width="0.522" height="31.217" transform="translate(195.313 124.887)" fill="#e6e6e6" opacity="0.7" style="mix-blend-mode: multiply;isolation: isolate"/>
          <rect id="Rectangle_396" data-name="Rectangle 396" width="0.522" height="10.278" transform="translate(195.313 111.3)" fill="#e6e6e6" opacity="0.7" style="mix-blend-mode: multiply;isolation: isolate"/>
          <rect id="Rectangle_397" data-name="Rectangle 397" width="74.13" height="1.32" transform="translate(137.474 105.327)" fill="#e6e6e6" opacity="0.7" style="mix-blend-mode: multiply;isolation: isolate"/>
          <rect id="Rectangle_398" data-name="Rectangle 398" width="8.47" height="3.817" transform="translate(204.02 102.067)" fill="#f0f0f0"/>
          <rect id="Rectangle_399" data-name="Rectangle 399" width="67.265" height="3.817" transform="translate(204.02 105.883) rotate(180)" fill="#f5f5f5"/>
          <path id="Path_2405" data-name="Path 2405" d="M55.943,52.276a6.131,6.131,0,0,1-.886-2.374,11.966,11.966,0,0,1-.128-2.551A16.817,16.817,0,0,1,56,42.4a24.539,24.539,0,0,1,.985-2.315c.394-.739.788-1.477,1.231-2.182s.931-1.384,1.433-2.044a19.806,19.806,0,0,1,1.655-1.871,24.276,24.276,0,0,1-.985,2.29c-.359.749-.64,1.5-.985,2.231l-.955,2.216-.438,1.118-.227.556-.2.561a30.42,30.42,0,0,0-1.335,4.55,17.1,17.1,0,0,0-.345,2.349A9.087,9.087,0,0,0,55.943,52.276Z" transform="translate(106.046 38.552)" fill="#e6e6e6"/>
          <path id="Path_2406" data-name="Path 2406" d="M57.024,47.327a12.681,12.681,0,0,0-.31-3.541A7.022,7.022,0,0,0,55.27,40.91a9.716,9.716,0,0,0-2.6-2.049c-1.01-.586-2.122-1.044-3.27-1.586a9.012,9.012,0,0,1,3.782.4,8.229,8.229,0,0,1,1.793.837,7.224,7.224,0,0,1,1.541,1.335,6.254,6.254,0,0,1,1.477,3.757,6.358,6.358,0,0,1-.97,3.718Z" transform="translate(95.407 44.807)" fill="#e6e6e6"/>
          <path id="Path_2407" data-name="Path 2407" d="M56.54,49.759a32.654,32.654,0,0,0-.389-4.137,16.192,16.192,0,0,0-1.078-3.8,11.952,11.952,0,0,0-2.088-3.27,19.163,19.163,0,0,0-3.112-2.679,8.584,8.584,0,0,1,3.989,1.733,9.091,9.091,0,0,1,2.713,3.565,10.686,10.686,0,0,1,.852,4.348A10.273,10.273,0,0,1,56.54,49.759Z" transform="translate(96.318 42.203)" fill="#e6e6e6"/>
          <path id="Path_2408" data-name="Path 2408" d="M58.706,52.826A23.146,23.146,0,0,1,56,48.34a32.179,32.179,0,0,1-1.827-4.925,27.928,27.928,0,0,1-.95-5.181,19.141,19.141,0,0,1,.241-5.25c.36,1.729.635,3.4,1.029,5.058s.788,3.295,1.256,4.925.941,3.26,1.448,4.89S58.218,51.142,58.706,52.826Z" transform="translate(102.628 36.619)" fill="#e6e6e6"/>
          <path id="Path_2409" data-name="Path 2409" d="M60.138,51.785a23.637,23.637,0,0,1-3.24-3.94,32.629,32.629,0,0,1-2.462-4.467,27.677,27.677,0,0,1-1.694-4.831,18.846,18.846,0,0,1-.566-5.087c.62,1.605,1.157,3.162,1.793,4.693s1.266,3.048,1.97,4.55,1.384,3,2.1,4.506S59.453,50.219,60.138,51.785Z" transform="translate(100.753 37.537)" fill="#e6e6e6"/>
          <path id="Path_2410" data-name="Path 2410" d="M62.611,49.883a18.466,18.466,0,0,1-3.817-2.689,24.89,24.89,0,0,1-3.167-3.447,21.529,21.529,0,0,1-2.462-4,15.143,15.143,0,0,1-1.33-4.486c.847,1.325,1.6,2.62,2.462,3.856s1.7,2.462,2.625,3.639,1.842,2.359,2.8,3.531S61.646,48.651,62.611,49.883Z" transform="translate(100.111 41.015)" fill="#e6e6e6"/>
          <path id="Path_2411" data-name="Path 2411" d="M61.07,48.557a13.5,13.5,0,0,1-3.684-2.265,18.1,18.1,0,0,1-2.955-3.162,19.324,19.324,0,0,1-1.2-1.817,17.968,17.968,0,0,1-.95-1.97,13.537,13.537,0,0,1-1.029-4.206c.773,1.236,1.408,2.462,2.177,3.615.345.6.758,1.147,1.118,1.729a18.742,18.742,0,0,0,1.2,1.664q1.221,1.645,2.561,3.226C59.174,46.439,60.085,47.478,61.07,48.557Z" transform="translate(98.979 40.775)" fill="#e6e6e6"/>
          <path id="Path_2412" data-name="Path 2412" d="M56.863,51a4.5,4.5,0,0,1-1.477-1.763,8.278,8.278,0,0,1-.714-2.226A12.386,12.386,0,0,1,54.8,42.4a22.3,22.3,0,0,1,.591-2.2c.281-.7.532-1.418.867-2.093a22.5,22.5,0,0,1,1.088-1.97,22.056,22.056,0,0,1,1.325-1.822c-.158.744-.379,1.448-.591,2.152s-.389,1.413-.62,2.1-.369,1.394-.581,2.078l-.241,1.039c-.084.345-.182.689-.231,1.039a19.865,19.865,0,0,0-.453,4.161,10.64,10.64,0,0,0,.187,2.083A6.327,6.327,0,0,0,56.863,51Z" transform="translate(105.283 39.179)" fill="#e6e6e6"/>
          <path id="Path_2413" data-name="Path 2413" d="M56.834,50.732a9.741,9.741,0,0,1-2.28-4.078,12.159,12.159,0,0,1-.428-4.747c.025-.4.123-.788.187-1.182l.113-.591.172-.571c.128-.379.236-.758.379-1.128s.33-.724.492-1.078l.266-.527.32-.492.65-.985a18.013,18.013,0,0,1,1.571-1.719c-.256.744-.6,1.418-.872,2.118L57.016,36.8l-.2.492-.158.532c-.1.35-.212.7-.325,1.044L56.1,39.927l-.128.527-.074.532c-.044.355-.133.709-.153,1.064a18.3,18.3,0,0,0,.059,4.309,20.379,20.379,0,0,0,1.034,4.373Z" transform="translate(104.397 37.871)" fill="#e6e6e6"/>
          <path id="Path_2414" data-name="Path 2414" d="M58.944,43.4,51.887,37.12l1.044,8.524Z" transform="translate(100.208 44.604)" fill="#e6e6e6"/>
          <path id="Path_2415" data-name="Path 2415" d="M49.654,38.87H70.13L67.447,54.082H52.338Z" transform="translate(95.896 47.984)" fill="#f5f5f5"/>
          <path id="Path_2416" data-name="Path 2416" d="M54.019,38.87H61.7L59.017,54.082H54.984Z" transform="translate(104.326 47.984)" fill="#ebebeb"/>
          <path id="Path_2417" data-name="Path 2417" d="M68.34,48.88a5.525,5.525,0,0,0-.084-2.019,8.37,8.37,0,0,0-.606-1.837,15.268,15.268,0,0,0-2.083-3.28c-.187-.271-.428-.492-.64-.753s-.428-.492-.655-.753c-.492-.492-.916-.985-1.4-1.477s-.955-.985-1.448-1.477-.985-.985-1.477-1.522c.665.251,1.3.561,1.935.877a20.744,20.744,0,0,1,1.807,1.118,9.9,9.9,0,0,1,.847.65c.276.227.547.463.818.694a17.242,17.242,0,0,1,1.477,1.581,10.342,10.342,0,0,1,2.024,3.9,6.712,6.712,0,0,1,.192,2.216A3.979,3.979,0,0,1,68.34,48.88Z" transform="translate(115.769 41.979)" fill="#e6e6e6"/>
          <path id="Path_2418" data-name="Path 2418" d="M67.617,46.537a3.679,3.679,0,0,1-1.108-1.684,4.6,4.6,0,0,1-.222-1.039,4.969,4.969,0,0,1,0-.542,2.181,2.181,0,0,1,.049-.537,6.668,6.668,0,0,1,2.088-3.624c.246-.241.527-.433.788-.65a6.269,6.269,0,0,1,.827-.581c.286-.167.571-.34.867-.492.143-.079.286-.167.438-.236l.453-.192c.305-.128.611-.246.916-.364a6.25,6.25,0,0,1,.936-.3,18.536,18.536,0,0,1,1.926-.394,17.626,17.626,0,0,1-1.591,1.123c-.271.163-.527.345-.783.532s-.492.355-.778.527c-.537.32-.985.729-1.477,1.074a6.5,6.5,0,0,0-.7.566,8.066,8.066,0,0,0-.68.581,7.618,7.618,0,0,0-1.97,2.738,6.1,6.1,0,0,0-.227.808,5.549,5.549,0,0,0-.069.862A5.417,5.417,0,0,0,67.617,46.537Z" transform="translate(128.006 42.258)" fill="#e6e6e6"/>
          <path id="Path_2419" data-name="Path 2419" d="M67.466,48.38a6.668,6.668,0,0,1-1.379-4.038,8.372,8.372,0,0,1,1.1-4.27l.591-.936c.227-.291.468-.566.709-.842l.369-.409.4-.355.827-.694a19.377,19.377,0,0,1,1.817-1.118,19.627,19.627,0,0,1,1.97-.768,17.824,17.824,0,0,1-1.512,1.428c-.527.443-.955.95-1.418,1.418-.217.256-.428.492-.65.744l-.33.359-.281.394c-.187.261-.394.492-.576.768l-.492.813a10.509,10.509,0,0,0-1.246,3.541,11.238,11.238,0,0,0,.094,3.964Z" transform="translate(127.631 40.415)" fill="#e6e6e6"/>
          <path id="Path_2420" data-name="Path 2420" d="M63.024,51.5c.409-1.522.852-2.989,1.28-4.432s.847-2.915,1.231-4.373.7-2.925.985-4.432a44.5,44.5,0,0,0,.566-4.55,13.3,13.3,0,0,1,.719,4.678,22.078,22.078,0,0,1-.685,4.688,25.461,25.461,0,0,1-1.62,4.432A19.363,19.363,0,0,1,63.024,51.5Z" transform="translate(121.717 38.024)" fill="#e6e6e6"/>
          <path id="Path_2421" data-name="Path 2421" d="M63.2,51.2c.64-1.477,1.33-2.955,2.009-4.368s1.364-2.851,2.019-4.279,1.285-2.861,1.871-4.314,1.088-2.955,1.581-4.5a14.947,14.947,0,0,1-.35,4.88,25.662,25.662,0,0,1-1.61,4.619,30.615,30.615,0,0,1-2.4,4.235A22.314,22.314,0,0,1,63.2,51.2Z" transform="translate(122.054 38.076)" fill="#e6e6e6"/>
          <path id="Path_2422" data-name="Path 2422" d="M62.514,50.45c.96-1.32,1.97-2.566,2.955-3.812s1.97-2.462,2.925-3.718,1.891-2.5,2.787-3.792,1.714-2.62,2.546-4.028a14.981,14.981,0,0,1-1.433,4.678,25.551,25.551,0,0,1-2.6,4.142,30.67,30.67,0,0,1-3.285,3.59,22.372,22.372,0,0,1-3.9,2.94Z" transform="translate(120.734 40.704)" fill="#e6e6e6"/>
          <path id="Path_2423" data-name="Path 2423" d="M63.543,48.881c.941-1.177,1.881-2.29,2.807-3.418s1.822-2.246,2.7-3.383,1.689-2.31,2.462-3.506,1.477-2.462,2.236-3.772a13.084,13.084,0,0,1-1.1,4.383,19.167,19.167,0,0,1-2.319,3.89,22.654,22.654,0,0,1-3.083,3.285,16.97,16.97,0,0,1-3.7,2.521Z" transform="translate(122.719 40.126)" fill="#e6e6e6"/>
          <path id="Path_2424" data-name="Path 2424" d="M65.359,48.587a7.126,7.126,0,0,0,.749-3.447,8.6,8.6,0,0,0-.857-3.28l-.167-.4-.212-.384-.414-.778c-.33-.492-.625-1.019-.985-1.527s-.685-1.014-1.049-1.522a18.931,18.931,0,0,1-1.069-1.586A17.9,17.9,0,0,1,63,36.689a16.885,16.885,0,0,1,1.477,1.266,7.681,7.681,0,0,1,.655.729q.315.379.62.768l.527.852.251.433.207.463a7.1,7.1,0,0,1,.64,4.018A4.925,4.925,0,0,1,65.359,48.587Z" transform="translate(118.495 41.794)" fill="#e6e6e6"/>
          <path id="Path_2425" data-name="Path 2425" d="M65.405,48.359a18.576,18.576,0,0,0,.827-3.757,9.716,9.716,0,0,0-.261-3.556,8.231,8.231,0,0,0-.64-1.65,9.966,9.966,0,0,0-.955-1.541,25.943,25.943,0,0,0-2.571-2.886A8.8,8.8,0,0,1,65.336,37a7.75,7.75,0,0,1,1.349,1.635,7.332,7.332,0,0,1,.867,1.97,7.8,7.8,0,0,1-.064,4.24A7.879,7.879,0,0,1,65.405,48.359Z" transform="translate(119.364 40.451)" fill="#e6e6e6"/>
          <path id="Path_2426" data-name="Path 2426" d="M63.855,44.012l7.7-7.4-.31,7.254Z" transform="translate(123.323 43.63)" fill="#e6e6e6"/>
          <path id="Path_2427" data-name="Path 2427" d="M60.981,38.87H81.457L78.773,54.082H63.665Z" transform="translate(117.771 47.984)" fill="#f5f5f5"/>
          <path id="Path_2428" data-name="Path 2428" d="M65.344,38.87h7.687L70.347,54.082H66.314Z" transform="translate(126.197 47.984)" fill="#ebebeb"/>
          <path id="Path_2429" data-name="Path 2429" d="M25.691,15.241V95.019a12.508,12.508,0,0,1-12.508,12.508h58.11A12.513,12.513,0,0,0,83.806,95.019V15.241Z" transform="translate(25.46 2.35)" fill="#f5f5f5"/>
          <rect id="Rectangle_400" data-name="Rectangle 400" width="37.55" height="37.55" transform="translate(62.596 37.786)" fill="#f0f0f0"/>
          <rect id="Rectangle_401" data-name="Rectangle 401" width="37.55" height="37.55" transform="translate(61.444 36.629)" fill="#fff"/>
          <rect id="Rectangle_402" data-name="Rectangle 402" width="9.549" height="9.549" transform="translate(61.114 79.739)" fill="#fff"/>
          <rect id="Rectangle_403" data-name="Rectangle 403" width="9.549" height="9.549" transform="translate(89.44 79.739)" fill="#fff"/>
          <rect id="Rectangle_404" data-name="Rectangle 404" width="9.549" height="9.549" transform="translate(75.277 79.739)" fill="#fff"/>
          <rect id="Rectangle_405" data-name="Rectangle 405" width="58.125" height="9.495" transform="translate(51.151 17.591)" fill="#f0f0f0"/>
          <path id="Path_2430" data-name="Path 2430" d="M18.648,15.32v6.1a1.694,1.694,0,0,0,1.7,1.7h0a1.7,1.7,0,0,0,1.7-1.7v-6.1a1.7,1.7,0,0,0-1.7-1.7h0a1.7,1.7,0,0,0-1.7,1.7Z" transform="translate(36.015 -0.778)" fill="#e6e6e6"/>
          <path id="Path_2431" data-name="Path 2431" d="M34.931,15.32v6.1a1.7,1.7,0,0,0,1.7,1.7h0a1.694,1.694,0,0,0,1.7-1.7v-6.1a1.7,1.7,0,0,0-1.7-1.7h0A1.7,1.7,0,0,0,34.931,15.32Z" transform="translate(67.461 -0.778)" fill="#e6e6e6"/>
          <path id="Path_2432" data-name="Path 2432" d="M31.673,15.32v6.1a1.7,1.7,0,0,0,1.7,1.7h0a1.7,1.7,0,0,0,1.7-1.7v-6.1a1.7,1.7,0,0,0-1.689-1.7h0A1.7,1.7,0,0,0,31.673,15.32Z" transform="translate(61.17 -0.778)" fill="#e6e6e6"/>
          <path id="Path_2433" data-name="Path 2433" d="M28.416,15.32v6.1a1.694,1.694,0,0,0,1.7,1.7h0a1.694,1.694,0,0,0,1.679-1.7v-6.1a1.7,1.7,0,0,0-1.694-1.7h0A1.7,1.7,0,0,0,28.416,15.32Z" transform="translate(54.879 -0.778)" fill="#e6e6e6"/>
          <path id="Path_2434" data-name="Path 2434" d="M25.158,15.32v6.1a1.694,1.694,0,0,0,1.694,1.7h0a1.694,1.694,0,0,0,1.7-1.7v-6.1a1.7,1.7,0,0,0-1.7-1.7h0A1.7,1.7,0,0,0,25.158,15.32Z" transform="translate(48.587 -0.778)" fill="#e6e6e6"/>
          <path id="Path_2435" data-name="Path 2435" d="M21.9,15.32v6.1a1.7,1.7,0,0,0,1.7,1.7h0a1.7,1.7,0,0,0,1.7-1.7v-6.1a1.7,1.7,0,0,0-1.7-1.7h0A1.7,1.7,0,0,0,21.9,15.32Z" transform="translate(42.293 -0.778)" fill="#e6e6e6"/>
          <path id="Path_2436" data-name="Path 2436" d="M74.317,44.93a5.235,5.235,0,0,0,5.235,5.235h-65.4A5.235,5.235,0,0,1,8.914,44.93Z" transform="translate(17.216 59.688)" fill="#e6e6e6"/>
        </g>
        <g id="freepik--Shadow--inject-84" transform="translate(27.632 172.32)">
          <ellipse id="freepik--path--inject-84" cx="95.482" cy="5.575" rx="95.482" ry="5.575" fill="#f5f5f5"/>
        </g>
        <g id="freepik--Hourglass--inject-84" transform="translate(89.277 82.102)">
          <path id="Path_2437" data-name="Path 2437" d="M69.135,53.883S32.945,75.25,32.945,95.5h72.391C105.331,75.25,69.135,53.883,69.135,53.883Z" transform="translate(-25.652 -5.124)" fill="#312883" opacity="0.2"/>
          <path id="Path_2438" data-name="Path 2438" d="M67.309,62.58S33.891,70.858,33.891,78.7h66.836C100.727,70.858,67.309,62.58,67.309,62.58Z" transform="translate(-23.825 11.673)" fill="#312883" opacity="0.2"/>
          <path id="Path_2439" data-name="Path 2439" d="M46.79,55.9c6.8,6.683,20,21.491,20,35.713H57.737C57.737,77.386,50.508,62.578,46.79,55.9Z" transform="translate(1.087 -1.237)" fill="#fff" opacity="0.3"/>
          <path id="Path_2440" data-name="Path 2440" d="M69.135,81.3S32.945,59.932,32.945,39.687h72.391C105.331,59.932,69.135,81.3,69.135,81.3Z" transform="translate(-25.652 -32.541)" fill="#312883" opacity="0.2"/>
          <path id="Path_2441" data-name="Path 2441" d="M57.465,64.606S38.988,55.742,38.988,47.321H75.947C75.947,55.727,57.465,64.606,57.465,64.606Z" transform="translate(-13.981 -17.798)" fill="#312883" opacity="0.2"/>
          <path id="Path_2442" data-name="Path 2442" d="M57.112,75.4c-6.791-6.683-19.984-21.491-19.984-35.713h9.056C46.165,53.909,53.379,68.717,57.112,75.4Z" transform="translate(-17.573 -32.541)" fill="#fff" opacity="0.3"/>
          <path id="Path_2443" data-name="Path 2443" d="M46.79,75.4c6.8-6.683,19.674-23.2,20-35.713H64.38C63.248,54.938,52.167,68.934,46.79,75.4Z" transform="translate(1.087 -32.541)" fill="#fff" opacity="0.3"/>
          <rect id="Rectangle_406" data-name="Rectangle 406" width="4.102" height="0.492" transform="translate(70.663)" fill="#312883"/>
          <path id="Path_2444" data-name="Path 2444" d="M68.02,44.015h-.492a6.279,6.279,0,0,0-6.269-6.274H56.93v-.492h4.329A6.776,6.776,0,0,1,68.02,44.015Z" transform="translate(20.671 -37.249)" fill="#312883"/>
          <rect id="Rectangle_407" data-name="Rectangle 407" width="86.968" height="10.844" rx="1.72" transform="translate(0 1.724)" fill="#312883"/>
          <rect id="Rectangle_408" data-name="Rectangle 408" width="86.968" height="10.844" rx="1.72" transform="translate(0 84.949)" fill="#312883"/>
        </g>
        <g id="freepik--Character--inject-84" transform="translate(58.384 12.536)">
          <path id="Path_2445" data-name="Path 2445" d="M25.841,58.872,22.5,55.907l5.693-8.741,3.339,2.96Z" transform="translate(-14.927 51.47)" fill="#ff8b7b"/>
          <path id="Path_2446" data-name="Path 2446" d="M28.182,51.186l4.245,2.955a.325.325,0,0,1,.1.448L30.4,58.095a.817.817,0,0,1-1.128.212c-1.477-1.049-2.024-1.561-3.792-2.989a65.65,65.65,0,0,1-5.023-4.378c-1.31-1.359.074-2.674.768-2.206,1.64,1.113,4.491,2.339,6.141,2.241A1.28,1.28,0,0,1,28.182,51.186Z" transform="translate(-19.918 54.31)" fill="#263238"/>
          <path id="Path_2447" data-name="Path 2447" d="M29.585,50.131l-3.339-2.965-2.738,4.21,3.423,2.841Z" transform="translate(-12.983 51.47)" opacity="0.2"/>
          <path id="Path_2448" data-name="Path 2448" d="M63.341,33.364s-22.407-1.532-25.184,6.062c-6.318,17.266-14.537,35.58-14.537,35.58l6.6,4.782S44.184,58.44,48.444,44.735c8.618,2.093,24.2,3.881,29.217-1.881,4.284-4.925,1.078-9.49,1.078-9.49Z" transform="translate(-12.769 24.57)" fill="#263238"/>
          <path id="Path_2449" data-name="Path 2449" d="M31.814,37.859C31.292,39.967,30.5,46,30.006,50.008c1.088-2.108,2.122-4.245,3.053-6.333Z" transform="translate(-0.433 33.495)" opacity="0.3"/>
          <path id="Path_2450" data-name="Path 2450" d="M30.663,55.891l-7.49-5.87,1.532-3.29,8.372,6.4Z" transform="translate(-13.632 50.63)" fill="#312883"/>
          <path id="Path_2451" data-name="Path 2451" d="M22.5,50.313a6.027,6.027,0,0,0,1.1.566.108.108,0,0,0,.138-.138c-.064-.167-.625-1.64-1.211-1.783a.409.409,0,0,0-.379.108.6.6,0,0,0-.222.556A1.261,1.261,0,0,0,22.5,50.313Zm.95.271c-.773-.335-1.256-.7-1.31-.985a.384.384,0,0,1,.158-.359.187.187,0,0,1,.182-.054C22.8,49.264,23.209,50,23.455,50.584Z" transform="translate(-16.037 54.912)" fill="#312883"/>
          <path id="Path_2452" data-name="Path 2452" d="M22.611,51.042a.089.089,0,0,0,.049,0,.113.113,0,0,0,.1-.039c.034-.039.872-1.069.749-1.7a.542.542,0,0,0-.291-.379.409.409,0,0,0-.492.044,2.371,2.371,0,0,0-.138,2.019A.133.133,0,0,0,22.611,51.042Zm.547-1.886a.32.32,0,0,1,.138.207c.074.374-.325,1.019-.586,1.374a2.181,2.181,0,0,1,.148-1.6c.049-.044.118-.089.261,0Z" transform="translate(-15.066 54.735)" fill="#312883"/>
          <path id="Path_2453" data-name="Path 2453" d="M37.049,59.956l-4.309.862-.8-11.538,4.378.138Z" transform="translate(3.305 55.552)" fill="#ff8b7b"/>
          <path id="Path_2454" data-name="Path 2454" d="M36.434,54.067l4.925-2.073a.335.335,0,0,1,.453.163l1.881,3.782a.847.847,0,0,1-.438,1.1c-1.724.694-2.58.936-4.742,1.852a61.4,61.4,0,0,1-6.845,2.664c-1.921.478-2.354-1.448-1.576-1.822a17.453,17.453,0,0,0,5.717-5.082,1.364,1.364,0,0,1,.625-.586Z" transform="translate(-0.976 60.727)" fill="#263238"/>
          <path id="Path_2455" data-name="Path 2455" d="M32.447,53.819a6.042,6.042,0,0,0,1.1-.65.109.109,0,0,0-.044-.2c-.177-.039-1.773-.359-2.221.074a.409.409,0,0,0-.113.389.606.606,0,0,0,.359.492A1.29,1.29,0,0,0,32.447,53.819Zm.753-.68c-.714.492-1.3.7-1.591.591a.389.389,0,0,1-.227-.335.2.2,0,0,1,.049-.192C31.674,52.972,32.56,53.031,33.2,53.14Z" transform="translate(1.785 62.393)" fill="#312883"/>
          <path id="Path_2456" data-name="Path 2456" d="M33.126,54.113a.152.152,0,0,0,.044-.034.113.113,0,0,0,0-.1c0-.054-.453-1.354-1.074-1.6a.547.547,0,0,0-.492.044.414.414,0,0,0-.236.463c.1.492,1.138,1.157,1.684,1.231A.1.1,0,0,0,33.126,54.113Zm-1.344-1.522a.33.33,0,0,1,.256,0c.369.143.709.847.877,1.271-.492-.163-1.246-.67-1.31-1.014a.225.225,0,0,1,.133-.227Z" transform="translate(2.179 61.464)" fill="#312883"/>
          <path id="Path_2457" data-name="Path 2457" d="M36.325,49.422l-4.383-.143.419,6.028,4.363-.079Z" transform="translate(3.305 55.552)" opacity="0.2"/>
          <path id="Path_2458" data-name="Path 2458" d="M61.233,33.281s-32.01,3.029-30.857,12.666c1.684,13.9,2.915,38.244,2.915,38.244l8.16.32s3.063-21.4,1.271-35.639c8.288,0,26.292.438,29.459-3.846C75.938,39.944,74.2,33.281,74.2,33.281Z" transform="translate(0.222 24.654)" fill="#263238"/>
          <path id="Path_2459" data-name="Path 2459" d="M41.125,54.057l-9.795-.488-.35-4.26,10.74.739Z" transform="translate(1.449 55.61)" fill="#312883"/>
          <path id="Path_2460" data-name="Path 2460" d="M55.653,26.008c-.069.882-.148,1.665-.256,2.487s-.212,1.625-.34,2.438c-.236,1.62-.561,3.231-.926,4.851a45.619,45.619,0,0,1-1.374,4.865,25.929,25.929,0,0,1-2.231,4.925,12.311,12.311,0,0,1-1.97,2.507,7.578,7.578,0,0,1-.635.532c-.2.167-.4.31-.611.453a12.566,12.566,0,0,1-1.226.763,23.844,23.844,0,0,1-4.925,2c-.813.251-1.63.453-2.462.635s-1.625.34-2.462.468a39.612,39.612,0,0,1-4.925.492,1.684,1.684,0,0,1-.591-3.285l.064-.025a79.122,79.122,0,0,0,8.485-3.231A23.146,23.146,0,0,0,42.9,44.83c.261-.187.492-.379.729-.571.108-.094.222-.187.315-.286a2.787,2.787,0,0,0,.246-.251,6.758,6.758,0,0,0,.837-1.285,21.177,21.177,0,0,0,1.433-3.787c.4-1.384.744-2.827,1.029-4.294s.542-2.955.783-4.462.424-3.043.591-4.472v-.084a3.383,3.383,0,0,1,6.727.67Z" transform="translate(-1.304 3.704)" fill="#312883"/>
          <path id="Path_2461" data-name="Path 2461" d="M31.832,31.584l-2.462.153,1.97,4.531s4.26-.094,4.171-2.191l-.768-.985A4.009,4.009,0,0,0,31.832,31.584Z" transform="translate(-1.663 21.377)" fill="#ff8b7b"/>
          <path id="Path_2462" data-name="Path 2462" d="M28.449,32l2.127,4.166h2.536l-1.97-4.531Z" transform="translate(-3.441 21.484)" fill="#ff8b7b"/>
          <path id="Path_2463" data-name="Path 2463" d="M42.573,22.34l4.762-.985,3.792-.547a7.033,7.033,0,0,1,1.64-.074,7.18,7.18,0,0,1,6.274,5.245c.95,3.447,1.807,7.677,2.462,11.425A140.4,140.4,0,0,1,62.98,57.541H40.421c-.492-12.878-3.231-21.176-4.161-26.322a7.2,7.2,0,0,1,3.984-7.776Z" transform="translate(11.421 0.389)" fill="#312883"/>
          <path id="Path_2464" data-name="Path 2464" d="M37.6,23.748c.054,2.118.492,9.667,2.763,13.956.4-4.018,5.171-16.251,5.171-16.251Z" transform="translate(14.239 1.812)" fill="#f5f5f5"/>
          <path id="Path_2465" data-name="Path 2465" d="M49.565,38.644h0a.664.664,0,0,0-.03-.236l-.044-.355c-.025-.192-.049-.384-.074-.566l-.074-.527-.074-.492a2.89,2.89,0,0,0-.064-.414c-.049-.315-.1-.62-.153-.921-.162-.921-.335-1.876-.522-2.837v-.079c-.187-.985-.379-1.935-.586-2.9v-.064c-.084-.414-.172-.817-.266-1.226l-.1-.453L47.4,26.8l-.148-.611-.03-.128h0c-.2-.808-.4-1.6-.606-2.349l-3.423-1.8c.394,1.512.768,3.176,1.123,4.88a5,5,0,0,0-1.123.8c-.817.729-.788,2.28.03,4.117a45.528,45.528,0,0,1,3.693,16.6c.1,2.319.167,4.668.2,6.949h3.447C50.461,49.606,50.146,43.519,49.565,38.644Z" transform="translate(23.877 2.685)" opacity="0.3"/>
          <path id="Path_2466" data-name="Path 2466" d="M42.855,18.033,40.92,20.988,38.29,25a4.112,4.112,0,0,1,.813,1.187c.492.985.877,1.694-1.157,3.078a1.133,1.133,0,0,0-.35,1.28c.118.63.492,1.29,2.679.9a10.12,10.12,0,0,0,5.506-3.053c.729-.734.561-1.28-.143-2.039C43.648,24.213,43.052,20.791,42.855,18.033Z" transform="translate(14.128 -4.794)" fill="#ff8b7b"/>
          <path id="Path_2467" data-name="Path 2467" d="M37.771,23.368l1.394.877,2.265-.96a3.659,3.659,0,0,0-1.97-1.029,3.9,3.9,0,0,0-1.689,1.113Z" transform="translate(14.563 3.36)" fill="#263238"/>
          <path id="Path_2468" data-name="Path 2468" d="M38.339,25.195A4.145,4.145,0,0,1,40.373,27.7s4.979-3.772,5.082-6.259c-.266-.847-1.512-.7-1.512-.7A12.464,12.464,0,0,1,38.339,25.195Z" transform="translate(15.66 0.42)" fill="#fff"/>
          <path id="Path_2469" data-name="Path 2469" d="M40.115,24.02a2.526,2.526,0,0,0-1.576,2.462s-2.216-2.6-.414-4.565a6.54,6.54,0,0,1,1.546-.576A2.87,2.87,0,0,0,40.115,24.02Z" transform="translate(13.884 1.595)" fill="#fff"/>
          <path id="Path_2470" data-name="Path 2470" d="M39.214,22.794h-.635a67.125,67.125,0,0,0-.606,7.431,22,22,0,0,0,1.335,4.181.206.206,0,0,0,0,.049c.034.079.069.153.108.227.069.148.138.3.217.433a27.778,27.778,0,0,1,1.059-4.5C40.041,27.773,39.214,22.794,39.214,22.794Z" transform="translate(14.953 4.401)" fill="#263238"/>
          <path id="Path_2471" data-name="Path 2471" d="M38.447,21.958,40.062,19.1c.03.069.069.153.108.231a7.841,7.841,0,0,1,.345,1.1c.3,1.275-.689,3.088-1.778,3.94-.044-.079-.084-.163-.128-.246a4.925,4.925,0,0,0-.744-1.142l-.064-.049Z" transform="translate(14.622 -2.74)" opacity="0.2"/>
          <path id="Path_2472" data-name="Path 2472" d="M36.422,21.477c-.389-1.748,2.393-4.166,2.393-4.166l-3.295-1.147C34.034,17.232,35,20.28,36.422,21.477Z" transform="translate(8.777 -8.405)" fill="#263238"/>
          <path id="Path_2473" data-name="Path 2473" d="M47.032,19.492c.778,4.373,1.477,6.894-.167,9.687a5.767,5.767,0,0,1-10.209-.3c-1.847-3.6-2.807-10.145.95-13.016a5.836,5.836,0,0,1,9.426,3.624Z" transform="translate(9.267 -11.473)" fill="#ff8b7b"/>
          <path id="Path_2474" data-name="Path 2474" d="M41.991,24.132l-2.068-.566V20.906s-2.615-1.477-2.211-3.324a20.191,20.191,0,0,1,.842-3.053s4.146-.266,5.417.266a9.006,9.006,0,0,1-1.069.985,9.426,9.426,0,0,1,2.512,2.571A3.447,3.447,0,0,0,44,19.035S44.537,22.684,41.991,24.132Z" transform="translate(14.367 -11.69)" fill="#263238"/>
          <path id="Path_2475" data-name="Path 2475" d="M37.521,13.519a2.1,2.1,0,0,1,.64,2.709l4.073.084C42.017,15.025,38.486,13.455,37.521,13.519Z" transform="translate(14.08 -13.517)" fill="#263238"/>
          <path id="Path_2476" data-name="Path 2476" d="M47.463,20.2c-.291.817-3.59,1.822-6.6,1.921a13.651,13.651,0,0,1-4.393-.827,5.023,5.023,0,0,1,1.477-1.049C36.132,19.792,33.832,18.2,33.2,16.9a7.525,7.525,0,0,1,4.137-.266,4.432,4.432,0,0,1-1.561-3.058s7.7,3.053,10.667,1.788c3.221-1.379,5.668,1.207,3.551,3.176S47.463,20.2,47.463,20.2Z" transform="translate(5.728 -13.408)" fill="#263238"/>
          <path id="Path_2477" data-name="Path 2477" d="M42.093,18.456a3.94,3.94,0,0,1-.882,2.659c-.8.95-2.039.192-2.324-.985-.256-1.069.079-2.718,1.128-3.231S42.039,17.26,42.093,18.456Z" transform="translate(16.56 -7.271)" fill="#ff8b7b"/>
          <path id="Path_2478" data-name="Path 2478" d="M37.411,17.976a.636.636,0,0,1-.2.768c-.2.084-.492-.133-.606-.492a.623.623,0,0,1,.2-.768C37,17.4,37.3,17.612,37.411,17.976Z" transform="translate(12.23 -5.89)" fill="#263238"/>
          <path id="Path_2479" data-name="Path 2479" d="M36.109,18.445c.108.34,0,.685-.2.763s-.492-.128-.606-.492,0-.685.2-.763S36,18.1,36.109,18.445Z" transform="translate(9.715 -4.98)" fill="#263238"/>
          <path id="Path_2480" data-name="Path 2480" d="M36.229,18.048a11.524,11.524,0,0,1-.355,3.024,1.728,1.728,0,0,0,1.438-.34Z" transform="translate(10.9 -4.765)" fill="#a02724"/>
          <path id="Path_2481" data-name="Path 2481" d="M37.141,20.567a3.127,3.127,0,0,0,1.822-1.605.108.108,0,0,0-.059-.138.1.1,0,0,0-.138.054,2.955,2.955,0,0,1-2.073,1.6.106.106,0,0,0,.044.207,3.222,3.222,0,0,0,.4-.113Z" transform="translate(12.322 -3.285)" fill="#263238"/>
          <path id="Path_2482" data-name="Path 2482" d="M38.464,17.419a.212.212,0,0,0,.074-.074.207.207,0,0,0-.059-.291,2.044,2.044,0,0,0-1.9-.2.213.213,0,1,0,.182.384,1.6,1.6,0,0,1,1.477.167.212.212,0,0,0,.227.01Z" transform="translate(12.024 -7.351)" fill="#263238"/>
          <path id="Path_2483" data-name="Path 2483" d="M36.291,17.556a.192.192,0,0,0,0-.1.212.212,0,0,0-.276-.113,2.019,2.019,0,0,0-1.241,1.448.212.212,0,0,0,.414.069,1.62,1.62,0,0,1,.985-1.128A.212.212,0,0,0,36.291,17.556Z" transform="translate(8.775 -6.164)" fill="#263238"/>
          <path id="Path_2484" data-name="Path 2484" d="M47.587,22.638c.542.67,1.014,1.275,1.477,1.921s.946,1.285,1.4,1.94c.921,1.305,1.778,2.659,2.615,4.038a42.71,42.71,0,0,1,2.315,4.339,26.734,26.734,0,0,1,1.8,4.925,13.045,13.045,0,0,1,.384,3.014,11.6,11.6,0,0,1-.433,3,19.91,19.91,0,0,1-2.127,4.846c-.424.724-.881,1.418-1.359,2.088s-.985,1.32-1.477,1.945a33.709,33.709,0,0,1-3.344,3.536,1.689,1.689,0,0,1-2.585-2.108l.044-.074a57.047,57.047,0,0,0,4-7.761,17.449,17.449,0,0,0,1.1-3.767,6.756,6.756,0,0,0,.064-1.571,7.663,7.663,0,0,0-.335-1.527,22.736,22.736,0,0,0-1.6-3.644c-.655-1.236-1.394-2.462-2.182-3.708s-1.615-2.462-2.462-3.659l-1.3-1.8c-.433-.586-.886-1.211-1.3-1.748l-.03-.039a3.38,3.38,0,1,1,5.309-4.186Z" transform="translate(21.826 1.613)" fill="#312883"/>
          <path id="Path_2485" data-name="Path 2485" d="M28.221,35.434l41.9-1.9a.985.985,0,0,1,1.049.955l-43.9,1.97a.985.985,0,0,1,.955-1.029Z" transform="translate(-5.729 25.145)" fill="#312883"/>
          <g id="Group_323" data-name="Group 323" transform="translate(21.535 58.681)" opacity="0.6">
            <path id="Path_2486" data-name="Path 2486" d="M28.221,35.434l41.9-1.9a.985.985,0,0,1,1.049.955l-43.9,1.97a.985.985,0,0,1,.955-1.029Z" transform="translate(-27.264 -33.535)" fill="#fff"/>
          </g>
          <path id="Path_2487" data-name="Path 2487" d="M25.639,28.441l29.808-1.349a.931.931,0,0,1,.867.625l5.722,18.157a.492.492,0,0,1-.458.68L31.77,47.9a.921.921,0,0,1-.862-.62L25.186,29.121a.492.492,0,0,1,.453-.68Z" transform="translate(-9.815 12.701)" fill="#312883"/>
          <path id="Path_2488" data-name="Path 2488" d="M25.639,28.441l29.808-1.349a.931.931,0,0,1,.867.625l5.722,18.157a.492.492,0,0,1-.458.68L31.77,47.9a.921.921,0,0,1-.862-.62L25.186,29.121a.492.492,0,0,1,.453-.68Z" transform="translate(-9.815 12.701)" fill="#fff" opacity="0.6"/>
          <path id="Path_2489" data-name="Path 2489" d="M36.355,27.715l5.722,18.157a.492.492,0,0,1-.458.685L35.488,27.09A.931.931,0,0,1,36.355,27.715Z" transform="translate(10.154 12.697)" fill="#312883" opacity="0.5"/>
          <path id="Path_2490" data-name="Path 2490" d="M38.757,34.032l11.016-.492a.985.985,0,0,1,1.049.955L37.8,35.081a.985.985,0,0,1,.955-1.049Z" transform="translate(14.617 25.149)" fill="#312883" opacity="0.5"/>
          <path id="Path_2491" data-name="Path 2491" d="M44.729,33.176l-2.817.409L44.8,37.6s4.585-.734,4.053-2.768l-.985-.817a4,4,0,0,0-3.137-.837Z" transform="translate(22.561 24.355)" fill="#ff8b7b"/>
          <path id="Path_2492" data-name="Path 2492" d="M40.737,34.484l3.531,3.078,2.8-.266-2.886-4.014Z" transform="translate(20.29 24.657)" fill="#ff8b7b"/>
        </g>
      </g>
    </g>
  </g>
</svg>
